<svg width="320" height="320" viewBox="0 0 320 320" fill="none" xmlns="http://www.w3.org/2000/svg">
  <rect width="320" height="320" rx="160" fill="#510F0D"/>
  <circle cx="160" cy="160" r="132" stroke="url(#paint0_linear)" stroke-width="2" opacity="0.5"/>
  <path d="M186.742 72C159.089 72 135.229 88.127 121.003 111.531C106.777 134.934 102.185 165.108 111.698 192.252C123.785 226.753 157.16 248 192.14 248C218.042 248 237.733 235.357 249.35 220.036C255.274 212.228 259.413 203.907 262.092 196.57C264.743 189.311 266 182.853 266 177.661C266 169.494 264.62 162.33 259.565 157.118C254.182 151.57 246.334 149.377 236.173 149.377H186.464V166.118H229.831C237.926 166.118 242.824 167.521 245.672 170.456C248.849 173.73 249.941 178.49 249.941 184.153C249.941 187.471 249.011 192.295 246.629 198.034C244.275 203.695 240.647 209.634 235.762 215.1C226.058 225.958 211.396 233.805 191.86 233.805C163.885 233.805 137.375 216.764 127.362 189.254C119.955 168.911 123.138 145.892 133.819 127.99C144.5 110.089 162.5 97.0851 184.39 97.0851C198.292 97.0851 209.631 100.935 218.706 106.756L227.592 92.6818C215.441 84.797 201.713 72 186.742 72Z" fill="url(#paint1_linear)"/>
  <path d="M157.452 110.855C168.985 110.855 178.402 120.267 178.402 131.793C178.402 143.318 168.985 152.73 157.452 152.73H134V232H116V110.855H157.452Z" fill="url(#paint2_linear)"/>
  <defs>
    <linearGradient id="paint0_linear" x1="160" y1="28" x2="160" y2="292" gradientUnits="userSpaceOnUse">
      <stop stop-color="#F5E4AF"/>
      <stop offset="0.48" stop-color="#D0AE5A"/>
      <stop offset="1" stop-color="#8F6420"/>
    </linearGradient>
    <linearGradient id="paint1_linear" x1="188.5" y1="72" x2="188.5" y2="248" gradientUnits="userSpaceOnUse">
      <stop stop-color="#F5E4AF"/>
      <stop offset="0.5" stop-color="#D7B767"/>
      <stop offset="1" stop-color="#9E7228"/>
    </linearGradient>
    <linearGradient id="paint2_linear" x1="147.201" y1="110.855" x2="147.201" y2="232" gradientUnits="userSpaceOnUse">
      <stop stop-color="#F5E4AF"/>
      <stop offset="0.5" stop-color="#D7B767"/>
      <stop offset="1" stop-color="#9E7228"/>
    </linearGradient>
  </defs>
</svg>
